<?xml version="1.0" encoding="utf-8"?>
<!-- Generator: Adobe Illustrator 19.0.0, SVG Export Plug-In . SVG Version: 6.00 Build 0)  -->
<svg version="1.1" id="Слой_1" xmlns="http://www.w3.org/2000/svg" xmlns:xlink="http://www.w3.org/1999/xlink" x="0px" y="0px"
	 viewBox="0 0 80 40" style="enable-background:new 0 0 80 40;" xml:space="preserve">
<style type="text/css">
	.st0{clip-path:url(#XMLID_3_);}
	.st1{clip-path:url(#XMLID_4_);fill:#FFFFFF;}
	.st2{clip-path:url(#XMLID_5_);}
	.st3{clip-path:url(#XMLID_6_);fill:#DF9476;}
	.st4{clip-path:url(#XMLID_3_);fill:#FFFFFF;}
</style>
<g id="XMLID_1_">
	<g id="XMLID_284_">
		<defs>
			<polyline id="XMLID_283_" points="40,40 0,40 0,0 40,0 40,40 			"/>
		</defs>
		<clipPath id="XMLID_3_">
			<use xlink:href="#XMLID_283_"  style="overflow:visible;"/>
		</clipPath>
		<g id="XMLID_287_" class="st0">
			<defs>
				<polyline id="XMLID_286_" points="0,1340 1200,1340 1200,-360 0,-360 0,1340 				"/>
			</defs>
			<clipPath id="XMLID_4_">
				<use xlink:href="#XMLID_286_"  style="overflow:visible;"/>
			</clipPath>
			<polyline id="XMLID_288_" class="st1" points="-100,1440 1300,1440 1300,-360 -100,-360 -100,1440 			"/>
		</g>
		<g id="XMLID_290_" class="st0">
			<defs>
				<polyline id="XMLID_289_" points="0,1340 1200,1340 1200,-360 0,-360 0,1340 				"/>
			</defs>
			<clipPath id="XMLID_5_">
				<use xlink:href="#XMLID_289_"  style="overflow:visible;"/>
			</clipPath>
			<g id="XMLID_293_" class="st2">
				<defs>
					<polyline id="XMLID_292_" points="-9,51.6 64.5,51.6 64.5,-11.5 -9,-11.5 -9,51.6 					"/>
				</defs>
				<clipPath id="XMLID_6_">
					<use xlink:href="#XMLID_292_"  style="overflow:visible;"/>
				</clipPath>
				<polyline id="XMLID_294_" class="st3" points="40,0 0,0 0,40 1.4,40 40,40 40,0 				"/>
			</g>
		</g>
		<polygon id="XMLID_285_" class="st4" points="26.2,33.8 12.4,20 26.2,6.2 25.1,5.2 10.3,20 25.1,34.8 26.2,33.8 		"/>
	</g>
</g>
</svg>
