<?xml version="1.0" encoding="utf-8"?>
<!-- Generator: Adobe Illustrator 19.0.0, SVG Export Plug-In . SVG Version: 6.00 Build 0)  -->
<svg version="1.1" id="Слой_1" xmlns="http://www.w3.org/2000/svg" xmlns:xlink="http://www.w3.org/1999/xlink" x="0px" y="0px"
	 viewBox="0 0 35 35" style="enable-background:new 0 0 35 35;" xml:space="preserve">
<style type="text/css">
	.st0{fill:#FFFFFF;}
	.st1{fill:#514F46;}
</style>
<path id="XMLID_2_" class="st0" d="M21.4,22.2h-3.9c-0.5,0-1-0.2-1.4-0.6c-0.4-0.4-0.6-0.9-0.6-1.4v-1.4h5.6c0.5,0,0.9-0.2,1.3-0.5
	c0.4-0.4,0.5-0.8,0.5-1.3c0-0.5-0.2-0.9-0.5-1.3c-0.4-0.4-0.8-0.5-1.3-0.5h-5.6v-4.4c0-0.5-0.2-1-0.6-1.4c-0.4-0.4-0.9-0.6-1.4-0.6
	c-0.6,0-1,0.2-1.4,0.6c-0.4,0.4-0.6,0.9-0.6,1.4v9.5c0,1.6,0.6,3,1.7,4.2c1.2,1.2,2.6,1.8,4.2,1.8h3.9c0.5,0,1-0.2,1.4-0.6
	c0.4-0.4,0.6-0.9,0.6-1.4c0-0.5-0.2-1-0.6-1.4C22.5,22.4,22,22.2,21.4,22.2"/>
<path id="XMLID_3_" class="st0" d="M18,7.4c-5.5,0-8.3,4-8.3,7.3c0,2,0.8,3.8,2.4,4.4c0.3,0.1,0.5,0,0.6-0.3
	c0.1-0.2,0.2-0.7,0.2-0.9c0.1-0.3,0-0.4-0.2-0.6c-0.5-0.6-0.8-1.3-0.8-2.3c0-2.9,2.2-5.6,5.7-5.6c3.1,0,4.8,1.9,4.8,4.5
	c0,3.4-1.5,6.2-3.7,6.2c-1.2,0-2.1-1-1.8-2.2c0.4-1.5,1-3.1,1-4.1c0-1-0.5-1.7-1.6-1.7c-1.2,0-2.2,1.3-2.2,3c0,1.1,0.4,1.8,0.4,1.8
	s-1.3,5.4-1.5,6.3c-0.4,1.9-0.1,4.2,0,4.4c0,0.1,0.2,0.2,0.3,0.1c0.1-0.1,1.6-2,2.1-3.8c0.1-0.5,0.8-3.2,0.8-3.2
	c0.4,0.8,1.6,1.4,2.8,1.4c3.7,0,6.3-3.4,6.3-8C25.3,10.6,22.4,7.4,18,7.4"/>
<path id="XMLID_5_" class="st0" d="M11.5,10.2c0.4-0.4,0.9-0.7,1.4-0.7c0,0,0,0,0.1,0c1.5,0,2.9,1.6,3.1,3.6
	c0.1,1.1-0.1,2.1-0.7,2.7c-0.4,0.4-0.9,0.7-1.4,0.7c0,0,0,0-0.1,0c-1.5,0-2.9-1.7-3.1-3.6C10.7,11.8,10.9,10.9,11.5,10.2 M9.6,23.8
	c0-1.6,1.9-3,4.1-3l0.1,0c0.5,0,1,0.1,1.4,0.2c0.2,0.1,0.3,0.2,0.4,0.3c1,0.7,1.7,1.1,1.9,1.9c0,0.2,0.1,0.4,0.1,0.6
	c0,1.9-1.5,2.9-4.2,2.9C11.2,26.8,9.6,25.5,9.6,23.8 M17.3,19.6c-0.6-0.4-1.5-1.3-1.5-1.7c0-0.6,0.1-0.8,1.1-1.6
	c1.2-0.9,1.8-2,1.8-3.2c0-1.2-0.4-2.6-1.4-3.3h1.2l1.8-1.4h-6.5c-2.8,0-5.4,2.2-5.4,4.6c0,2.6,2,4.5,4.8,4.5c0.1,0,0.2,0,0.3,0
	c-0.1,0.3-0.2,0.6-0.2,0.9c0,0.5,0.2,1,0.6,1.5c0,0-0.1,0-0.1,0c-0.2,0-0.3,0-0.5,0C9.8,19.9,7,22,7,24.4c0,2.1,2.7,3.7,6.3,3.7
	c4,0,6.1-2.3,6.1-4.5C19.4,21.8,18.9,20.7,17.3,19.6"/>
<polygon id="XMLID_4_" class="st0" points="24.1,16.7 24.1,12.9 22.7,12.9 22.7,16.7 18.9,16.7 18.9,18.1 22.7,18.1 22.7,22 
	24.1,22 24.1,18.1 28,18.1 28,16.7 "/>
<path id="XMLID_11_" class="st1" d="M35,32.9c0,1.1-0.9,2.1-2.1,2.1H2.1C0.9,35,0,34.1,0,32.9V2.1C0,0.9,0.9,0,2.1,0h30.9
	C34.1,0,35,0.9,35,2.1V32.9z"/>
<path id="XMLID_10_" class="st0" d="M26.8,7.8H12.2c-0.7,0-1.3,0.6-1.3,1.3v1.3h13.2c0.7,0,1.3,0.6,1.3,1.3v6.7v1.3h1.3
	c0.7,0,1.3-0.6,1.3-1.3V9.1C28.1,8.4,27.5,7.8,26.8,7.8"/>
<path id="XMLID_9_" class="st0" d="M22.7,11.8H8.2c-0.7,0-1.3,0.6-1.3,1.3c0,0,0,0,0,0.1v10.5c0,0.7,0.6,1.3,1.3,1.3v0h5
	c0,0,6.6,3.5,7.1,3.7c0.8,0.4,1.2,0,1.2-0.5v-3.2h1.3c0.7,0,1.3-0.6,1.3-1.3V13.1C24,12.3,23.5,11.8,22.7,11.8"/>
</svg>
