<?xml version="1.0" encoding="utf-8"?>
<!-- Generator: Adobe Illustrator 19.0.0, SVG Export Plug-In . SVG Version: 6.00 Build 0)  -->
<svg version="1.1" id="Слой_1" xmlns="http://www.w3.org/2000/svg" xmlns:xlink="http://www.w3.org/1999/xlink" x="0px" y="0px"
	 viewBox="0 0 35 35" style="enable-background:new 0 0 35 35;" xml:space="preserve">
<style type="text/css">
	.st0{fill:#514F46;}
	.st1{fill:#FFFFFF;}
</style>
<path id="XMLID_3_" class="st0" d="M35,32.9c0,1.1-0.9,2.1-2.1,2.1H2.1C0.9,35,0,34.1,0,32.9V2.1C0,0.9,0.9,0,2.1,0h30.9
	C34.1,0,35,0.9,35,2.1V32.9z"/>
<path id="XMLID_2_" class="st1" d="M18,7.4c-5.5,0-8.3,4-8.3,7.3c0,2,0.8,3.8,2.4,4.4c0.3,0.1,0.5,0,0.6-0.3
	c0.1-0.2,0.2-0.7,0.2-0.9c0.1-0.3,0-0.4-0.2-0.6c-0.5-0.6-0.8-1.3-0.8-2.3c0-2.9,2.2-5.6,5.7-5.6c3.1,0,4.8,1.9,4.8,4.5
	c0,3.4-1.5,6.2-3.7,6.2c-1.2,0-2.1-1-1.8-2.2c0.4-1.5,1-3.1,1-4.1c0-1-0.5-1.7-1.6-1.7c-1.2,0-2.2,1.3-2.2,3c0,1.1,0.4,1.8,0.4,1.8
	s-1.3,5.4-1.5,6.3c-0.4,1.9-0.1,4.2,0,4.4c0,0.1,0.2,0.2,0.3,0.1c0.1-0.1,1.6-2,2.1-3.8c0.1-0.5,0.8-3.2,0.8-3.2
	c0.4,0.8,1.6,1.4,2.8,1.4c3.7,0,6.3-3.4,6.3-8C25.3,10.6,22.4,7.4,18,7.4"/>
</svg>
