<?xml version="1.0" encoding="utf-8"?>
<!-- Generator: Adobe Illustrator 19.0.0, SVG Export Plug-In . SVG Version: 6.00 Build 0)  -->
<svg version="1.1" id="Слой_1" xmlns="http://www.w3.org/2000/svg" xmlns:xlink="http://www.w3.org/1999/xlink" x="0px" y="0px"
	 viewBox="0 0 32 32" style="enable-background:new 0 0 32 32;" xml:space="preserve">
<style type="text/css">
	.st0{fill:#FFFFFF;}
</style>
<polygon id="XMLID_45_" class="st0" points="3.9,25.2 2.7,25.2 2.7,25.7 3.8,25.7 3.8,26.1 2.7,26.1 2.7,26.7 4,26.7 4,27.1 
	2.2,27.1 2.2,24.8 3.9,24.8 "/>
<path id="XMLID_42_" class="st0" d="M6.6,27l-0.3-0.2c0.1-0.2,0.2-0.4,0.2-0.8c0-1.1-0.8-1.2-1.1-1.2c-0.3,0-1.1,0.1-1.1,1.2
	c0,1.1,0.8,1.2,1.1,1.2c0.1,0,0.4,0,0.6-0.2l0.3,0.3L6.6,27z M5.5,26.5l0.2,0.2c-0.1,0-0.2,0.1-0.3,0.1c-0.3,0-0.6-0.2-0.6-0.8
	c0-0.6,0.4-0.8,0.6-0.8c0.3,0,0.6,0.2,0.6,0.8c0,0.2,0,0.4-0.1,0.5l-0.2-0.2L5.5,26.5z"/>
<path id="XMLID_41_" class="st0" d="M8.8,26.3c0,0.6-0.4,0.9-1,0.9c-0.2,0-0.5-0.1-0.7-0.3C7,26.8,7,26.6,7,26.3v-1.5h0.5v1.5
	c0,0.3,0.2,0.5,0.4,0.5c0.3,0,0.5-0.2,0.5-0.4v-1.5h0.5V26.3z"/>
<path id="XMLID_38_" class="st0" d="M9.7,26.6h0.9l0.1,0.5h0.5l-0.8-2.3H9.8L9,27.1h0.5L9.7,26.6z M10.1,25.3L10.1,25.3l0.3,0.9H9.8
	L10.1,25.3z"/>
<polygon id="XMLID_37_" class="st0" points="12.1,26.7 13.2,26.7 13.2,27.1 11.6,27.1 11.6,24.8 12.1,24.8 "/>
<polygon id="XMLID_36_" class="st0" points="15.1,26.1 15.1,27.1 14.6,27.1 14.6,24.8 15.1,24.8 15.1,25.7 16,25.7 16,24.8 
	16.4,24.8 16.4,27.1 16,27.1 16,26.1 "/>
<path id="XMLID_33_" class="st0" d="M16.9,26c0,1.1,0.8,1.2,1.1,1.2c0.3,0,1.1-0.1,1.1-1.2c0-1.1-0.8-1.2-1.1-1.2
	C17.7,24.7,16.9,24.9,16.9,26 M17.4,26c0-0.6,0.4-0.8,0.6-0.8c0.3,0,0.6,0.2,0.6,0.8c0,0.6-0.4,0.8-0.6,0.8
	C17.7,26.8,17.4,26.6,17.4,26"/>
<path id="XMLID_32_" class="st0" d="M21.4,26.3c0,0.6-0.4,0.9-1,0.9c-0.2,0-0.5-0.1-0.7-0.3c-0.1-0.1-0.2-0.3-0.2-0.6v-1.5H20v1.5
	c0,0.3,0.2,0.5,0.4,0.5c0.3,0,0.5-0.2,0.5-0.4v-1.5h0.5V26.3z"/>
<path id="XMLID_31_" class="st0" d="M22.3,26.4c0,0.1,0.1,0.4,0.5,0.4c0.2,0,0.5-0.1,0.5-0.3c0-0.2-0.2-0.2-0.4-0.3l-0.2-0.1
	c-0.4-0.1-0.7-0.2-0.7-0.7c0-0.3,0.1-0.7,0.9-0.7c0.7,0,0.9,0.5,0.9,0.7h-0.5c0-0.1-0.1-0.3-0.5-0.3c-0.2,0-0.4,0.1-0.4,0.3
	c0,0.2,0.1,0.2,0.2,0.2l0.6,0.1c0.3,0.1,0.6,0.2,0.6,0.6c0,0.7-0.7,0.8-0.9,0.8c-0.8,0-1-0.5-1-0.8H22.3z"/>
<rect id="XMLID_30_" x="24.1" y="24.8" class="st0" width="0.5" height="2.3"/>
<polygon id="XMLID_29_" class="st0" points="26.5,24.8 27,24.8 27,27.1 26.5,27.1 25.6,25.5 25.6,25.5 25.6,27.1 25.1,27.1 
	25.1,24.8 25.6,24.8 26.5,26.4 26.5,26.4 "/>
<path id="XMLID_28_" class="st0" d="M28.6,25.9h1v1.2h-0.3l0-0.3c-0.1,0.1-0.3,0.4-0.7,0.4c-0.6,0-1.1-0.4-1.1-1.2
	c0-0.6,0.4-1.2,1.1-1.2c0.7,0,1,0.5,1,0.8h-0.5c0-0.1-0.2-0.4-0.5-0.4c-0.3,0-0.7,0.2-0.7,0.8c0,0.6,0.3,0.8,0.7,0.8
	c0.1,0,0.5,0,0.6-0.5h-0.5V25.9z"/>
<path id="XMLID_25_" class="st0" d="M2.1,29.5c0,1.1,0.8,1.2,1.1,1.2c0.3,0,1.1-0.1,1.1-1.2c0-1.1-0.8-1.2-1.1-1.2
	C2.9,28.3,2.1,28.4,2.1,29.5 M2.6,29.5c0-0.6,0.4-0.8,0.6-0.8c0.3,0,0.6,0.2,0.6,0.8c0,0.6-0.4,0.8-0.6,0.8
	C3,30.3,2.6,30.1,2.6,29.5"/>
<path id="XMLID_22_" class="st0" d="M5.6,29.8h0.6c0.6,0,0.7-0.5,0.7-0.7c0-0.5-0.3-0.7-0.7-0.7H5.2v2.3h0.5V29.8z M5.6,29.4v-0.7H6
	c0.3,0,0.4,0.1,0.4,0.3c0,0.1,0,0.4-0.4,0.4H5.6z"/>
<path id="XMLID_19_" class="st0" d="M8.3,29.8h0.6c0.6,0,0.7-0.5,0.7-0.7c0-0.5-0.3-0.7-0.7-0.7H7.8v2.3h0.5V29.8z M8.3,29.4v-0.7
	h0.4c0.3,0,0.4,0.1,0.4,0.3c0,0.1,0,0.4-0.4,0.4H8.3z"/>
<path id="XMLID_16_" class="st0" d="M10.3,29.5c0,1.1,0.8,1.2,1.1,1.2c0.3,0,1.1-0.1,1.1-1.2c0-1.1-0.8-1.2-1.1-1.2
	C11.1,28.3,10.3,28.4,10.3,29.5 M10.8,29.5c0-0.6,0.4-0.8,0.6-0.8c0.3,0,0.6,0.2,0.6,0.8c0,0.6-0.4,0.8-0.6,0.8
	C11.1,30.3,10.8,30.1,10.8,29.5"/>
<path id="XMLID_13_" class="st0" d="M13.3,30.6h0.5v-0.9h0.5c0.4,0,0.4,0.1,0.4,0.4c0,0.2,0,0.4,0.1,0.5h0.5v-0.1
	c-0.1,0-0.1-0.1-0.1-0.5c0-0.4-0.1-0.5-0.3-0.6c0.2-0.1,0.4-0.3,0.4-0.6c0-0.2-0.1-0.7-0.7-0.7h-1.2V30.6z M13.8,29.3v-0.6h0.6
	c0.3,0,0.3,0.2,0.3,0.3c0,0.2-0.1,0.3-0.4,0.3H13.8z"/>
<polygon id="XMLID_12_" class="st0" points="17,30.6 16.6,30.6 16.6,28.7 15.9,28.7 15.9,28.3 17.7,28.3 17.7,28.7 17,28.7 "/>
<path id="XMLID_11_" class="st0" d="M20.3,29.8c0,0.6-0.4,0.9-1,0.9c-0.2,0-0.5-0.1-0.7-0.3c-0.1-0.1-0.2-0.3-0.2-0.6v-1.5H19v1.5
	c0,0.3,0.2,0.5,0.4,0.5c0.3,0,0.5-0.2,0.5-0.4v-1.5h0.5V29.8z"/>
<polygon id="XMLID_10_" class="st0" points="22.7,28.3 23.1,28.3 23.1,30.6 22.6,30.6 21.7,29 21.7,29 21.7,30.6 21.2,30.6 
	21.2,28.3 21.7,28.3 22.7,29.9 22.7,29.9 "/>
<rect id="XMLID_9_" x="24" y="28.3" class="st0" width="0.5" height="2.3"/>
<polygon id="XMLID_8_" class="st0" points="26.4,30.6 25.9,30.6 25.9,28.7 25.2,28.7 25.2,28.3 27.1,28.3 27.1,28.7 26.4,28.7 "/>
<polygon id="XMLID_7_" class="st0" points="28.9,30.6 28.4,30.6 28.4,29.8 27.6,28.3 28.2,28.3 28.7,29.3 29.1,28.3 29.7,28.3 
	28.9,29.8 "/>
<path id="XMLID_4_" class="st0" d="M26.2,19.5H5.4V9.6l10.5-5.3l10.3,5.3V19.5z M15.9,0.7L0.3,8.4V12H2v10.8h27.6V12h2.1V8.4
	L15.9,0.7z"/>
<rect id="XMLID_3_" x="11" y="9.6" class="st0" width="9.6" height="3.5"/>
<rect id="XMLID_2_" x="11" y="14.6" class="st0" width="9.6" height="3.5"/>
</svg>
