<?xml version="1.0" encoding="utf-8"?>
<!-- Generator: Adobe Illustrator 19.0.0, SVG Export Plug-In . SVG Version: 6.00 Build 0)  -->
<svg version="1.1" id="Слой_1" xmlns="http://www.w3.org/2000/svg" xmlns:xlink="http://www.w3.org/1999/xlink" x="0px" y="0px"
	 viewBox="0 0 35 35" style="enable-background:new 0 0 35 35;" xml:space="preserve">
<style type="text/css">
	.st0{fill:#514F46;}
	.st1{fill:#FFFFFF;}
</style>
<path id="XMLID_3_" class="st0" d="M35,32.9c0,1.1-0.9,2.1-2.1,2.1H2.1C0.9,35,0,34.1,0,32.9V2.1C0,0.9,0.9,0,2.1,0h30.9
	C34.1,0,35,0.9,35,2.1V32.9z"/>
<path id="XMLID_2_" class="st1" d="M15,12v2.6h-1.9v3.2H15v8.8h3.9v-8.8h2.6c0,0,0.2-1.5,0.4-3.2h-3v-2.2c0-0.3,0.4-0.8,0.9-0.8h2.1
	V8.4H19C14.9,8.4,15,11.6,15,12"/>
</svg>
