<?xml version="1.0" encoding="utf-8"?>
<!-- Generator: Adobe Illustrator 19.0.0, SVG Export Plug-In . SVG Version: 6.00 Build 0)  -->
<svg version="1.1" id="Слой_1" xmlns="http://www.w3.org/2000/svg" xmlns:xlink="http://www.w3.org/1999/xlink" x="0px" y="0px"
	 viewBox="0 0 35 35" style="enable-background:new 0 0 35 35;" xml:space="preserve">
<style type="text/css">
	.st0{fill:#514F46;}
	.st1{fill:#FFFFFF;}
</style>
<path id="XMLID_7_" class="st0" d="M35,32.9c0,1.1-0.9,2.1-2.1,2.1H2.1C0.9,35,0,34.1,0,32.9V2.1C0,0.9,0.9,0,2.1,0h30.9
	C34.1,0,35,0.9,35,2.1V32.9z"/>
<path id="XMLID_3_" class="st1" d="M11.5,10.2c0.4-0.4,0.9-0.7,1.4-0.7c0,0,0,0,0.1,0c1.5,0,2.9,1.6,3.1,3.6
	c0.1,1.1-0.1,2.1-0.7,2.7c-0.4,0.4-0.9,0.7-1.4,0.7c0,0,0,0-0.1,0c-1.5,0-2.9-1.7-3.1-3.6C10.7,11.8,10.9,10.9,11.5,10.2 M9.6,23.8
	c0-1.6,1.9-3,4.1-3l0.1,0c0.5,0,1,0.1,1.4,0.2c0.2,0.1,0.3,0.2,0.4,0.3c1,0.7,1.7,1.1,1.9,1.9c0,0.2,0.1,0.4,0.1,0.6
	c0,1.9-1.5,2.9-4.2,2.9C11.2,26.8,9.6,25.5,9.6,23.8 M17.3,19.6c-0.6-0.4-1.5-1.3-1.5-1.7c0-0.6,0.1-0.8,1.1-1.6
	c1.2-0.9,1.8-2,1.8-3.2c0-1.2-0.4-2.6-1.4-3.3h1.2l1.8-1.4h-6.5c-2.8,0-5.4,2.2-5.4,4.6c0,2.6,2,4.5,4.8,4.5c0.1,0,0.2,0,0.3,0
	c-0.1,0.3-0.2,0.6-0.2,0.9c0,0.5,0.2,1,0.6,1.5c0,0-0.1,0-0.1,0c-0.2,0-0.3,0-0.5,0C9.8,19.9,7,22,7,24.4c0,2.1,2.7,3.7,6.3,3.7
	c4,0,6.1-2.3,6.1-4.5C19.4,21.8,18.9,20.7,17.3,19.6"/>
<polygon id="XMLID_2_" class="st1" points="24.1,16.7 24.1,12.9 22.7,12.9 22.7,16.7 18.9,16.7 18.9,18.1 22.7,18.1 22.7,22 
	24.1,22 24.1,18.1 28,18.1 28,16.7 "/>
</svg>
