<?xml version="1.0" encoding="utf-8"?>
<!-- Generator: Adobe Illustrator 19.0.0, SVG Export Plug-In . SVG Version: 6.00 Build 0)  -->
<svg version="1.1" id="Слой_1" xmlns="http://www.w3.org/2000/svg" xmlns:xlink="http://www.w3.org/1999/xlink" x="0px" y="0px"
	 viewBox="0 0 30 30" style="enable-background:new 0 0 30 30;" xml:space="preserve">
<style type="text/css">
	.st0{fill:#FFFFFF;}
</style>
<path id="XMLID_3_" class="st0" d="M18.7,21.1c-0.4,3.6-3.5,6.4-7.2,6.4c-4,0-7.2-3.2-7.2-7.2c0-2.2,1-4.3,2.6-5.6v-3
	c-3.1,1.6-5.2,4.9-5.2,8.6c0,5.4,4.4,9.8,9.8,9.8c4.1,0,7.6-2.5,9-6.1L18.7,21.1z"/>
<path id="XMLID_2_" class="st0" d="M27.9,22.9l-2,1.4l-5.2-8.7l-9.9,0.1v-2.1H16v-2.2h-5.3V6.3c1.2-0.5,2.1-1.7,2.1-3
	c0-1.8-1.5-3.3-3.3-3.3C7.8,0,6.3,1.5,6.3,3.3c0,1.4,0.9,2.6,2.2,3.1v11.5l10.9,0l5.7,9.5l4-2.6L27.9,22.9z"/>
</svg>
