<?xml version="1.0" encoding="utf-8"?>
<!-- Generator: Adobe Illustrator 19.0.0, SVG Export Plug-In . SVG Version: 6.00 Build 0)  -->
<svg version="1.1" id="Слой_1" xmlns="http://www.w3.org/2000/svg" xmlns:xlink="http://www.w3.org/1999/xlink" x="0px" y="0px"
	 viewBox="0 0 35 35" style="enable-background:new 0 0 35 35;" xml:space="preserve">
<style type="text/css">
	.st0{fill:#514F46;}
	.st1{fill:#FFFFFF;}
</style>
<path id="XMLID_3_" class="st0" d="M35,32.9c0,1.1-0.9,2.1-2.1,2.1H2.1C0.9,35,0,34.1,0,32.9V2.1C0,0.9,0.9,0,2.1,0h30.9
	C34.1,0,35,0.9,35,2.1V32.9z"/>
<path id="XMLID_2_" class="st1" d="M21.4,22.2h-3.9c-0.5,0-1-0.2-1.4-0.6c-0.4-0.4-0.6-0.9-0.6-1.4v-1.4h5.6c0.5,0,0.9-0.2,1.3-0.5
	c0.4-0.4,0.5-0.8,0.5-1.3c0-0.5-0.2-0.9-0.5-1.3c-0.4-0.4-0.8-0.5-1.3-0.5h-5.6v-4.4c0-0.5-0.2-1-0.6-1.4c-0.4-0.4-0.9-0.6-1.4-0.6
	c-0.6,0-1,0.2-1.4,0.6c-0.4,0.4-0.6,0.9-0.6,1.4v9.5c0,1.6,0.6,3,1.7,4.2c1.2,1.2,2.6,1.8,4.2,1.8h3.9c0.5,0,1-0.2,1.4-0.6
	c0.4-0.4,0.6-0.9,0.6-1.4c0-0.5-0.2-1-0.6-1.4C22.5,22.4,22,22.2,21.4,22.2"/>
</svg>
